M48
; DRILL file {KiCad (6.0.4)} date Tue Jun  7 18:20:17 2022
; FORMAT={-:-/ absolute / inch / decimal}
; #@! TF.CreationDate,2022-06-07T18:20:17+01:00
; #@! TF.GenerationSoftware,Kicad,Pcbnew,(6.0.4)
; #@! TF.FileFunction,Plated,1,2,PTH
FMAT,2
INCH
; #@! TA.AperFunction,Plated,PTH,ComponentDrill
T1C0.0236
; #@! TA.AperFunction,Plated,PTH,ComponentDrill
T2C0.0276
; #@! TA.AperFunction,Plated,PTH,ComponentDrill
T3C0.0295
; #@! TA.AperFunction,Plated,PTH,ComponentDrill
T4C0.0315
; #@! TA.AperFunction,Plated,PTH,ComponentDrill
T5C0.0354
; #@! TA.AperFunction,Plated,PTH,ComponentDrill
T6C0.0394
; #@! TA.AperFunction,Plated,PTH,ComponentDrill
T7C0.0433
; #@! TA.AperFunction,Plated,PTH,ComponentDrill
T8C0.0480
; #@! TA.AperFunction,Plated,PTH,ComponentDrill
T9C0.0559
; #@! TA.AperFunction,Plated,PTH,ComponentDrill
T10C0.0563
; #@! TA.AperFunction,Plated,PTH,ComponentDrill
T11C0.0599
; #@! TA.AperFunction,Plated,PTH,ComponentDrill
T12C0.0917
%
G90
G05
T1
X0.8612Y-0.9778
X0.8649Y-0.7829
X0.9202Y-0.9778
X0.924Y-0.7829
T2
X1.2201Y-1.0902
X1.2201Y-1.1886
X1.2718Y-6.8361
X1.3702Y-6.8361
X1.5296Y-6.6233
X1.5296Y-6.7218
X1.6165Y-3.3974
X1.715Y-3.3974
X1.7801Y-1.0918
X1.7801Y-1.1902
X1.8501Y-2.1712
X1.9485Y-2.1712
X2.0601Y-1.4018
X2.0601Y-1.5002
X2.0801Y-2.1707
X2.1785Y-2.1707
T3
X1.4043Y-1.1002
X1.4043Y-1.1502
X1.4043Y-1.2002
X1.5901Y-1.1002
X1.5901Y-1.1502
X1.5901Y-1.2002
T4
X0.9199Y-1.8616
X0.92Y-1.6452
X0.92Y-3.16
X0.92Y-3.38
X0.9256Y-3.56
X0.9556Y-2.0297
X0.9556Y-2.15
X0.9556Y-2.27
X0.9556Y-2.3897
X0.9556Y-2.51
X0.9556Y-2.6297
X0.9556Y-2.7497
X0.9556Y-2.87
X0.9556Y-2.99
X1.0058Y-1.1752
X1.0058Y-1.4752
X1.0199Y-1.8616
X1.02Y-1.6452
X1.02Y-3.16
X1.02Y-3.38
X1.1199Y-1.8616
X1.12Y-1.6452
X1.12Y-3.16
X1.12Y-3.38
X1.1749Y-6.2695
X1.1753Y-6.3891
X1.2256Y-3.56
X1.2556Y-2.0297
X1.2556Y-2.15
X1.2556Y-2.27
X1.2556Y-2.3897
X1.2556Y-2.51
X1.2556Y-2.6297
X1.2556Y-2.7497
X1.2556Y-2.87
X1.2556Y-2.99
X1.3501Y-1.3202
X1.3501Y-1.6202
X1.3562Y-5.05
X1.3562Y-5.17
X1.3795Y-1.7508
X1.3795Y-1.8508
X1.3795Y-1.9508
X1.3795Y-2.0508
X1.3795Y-2.1508
X1.3795Y-2.2508
X1.3795Y-2.3508
X1.3795Y-2.4508
X1.3805Y-2.66
X1.3805Y-2.76
X1.3805Y-2.86
X1.3805Y-2.96
X1.3805Y-3.06
X1.3805Y-3.16
X1.3805Y-3.26
X1.3901Y-3.5447
X1.3901Y-3.6628
X1.4749Y-6.2695
X1.4753Y-6.3891
X1.4901Y-1.3202
X1.4901Y-1.6202
X1.6301Y-1.3202
X1.6301Y-1.6202
X1.6562Y-5.05
X1.6562Y-5.17
X1.6592Y-5.3399
X1.6611Y-5.4678
X1.6611Y-5.5958
X1.6635Y-5.9954
X1.6641Y-5.8625
X1.6795Y-1.7508
X1.6795Y-1.8508
X1.6795Y-1.9508
X1.6795Y-2.0508
X1.6795Y-2.1508
X1.6795Y-2.2508
X1.6795Y-2.3508
X1.6795Y-2.4508
X1.6805Y-2.66
X1.6805Y-2.76
X1.6805Y-2.86
X1.6805Y-2.96
X1.6805Y-3.06
X1.6805Y-3.16
X1.6805Y-3.26
X1.6901Y-3.5447
X1.6901Y-3.6628
X1.7801Y-1.32
X1.7801Y-1.62
X1.7901Y-2.5902
X1.7917Y-2.7302
X1.8001Y-2.8602
X1.8401Y-1.7607
X1.8401Y-1.9002
X1.8401Y-2.0397
X1.8401Y-2.3202
X1.8401Y-2.4602
X1.8701Y-2.99
X1.8701Y-3.11
X1.8701Y-3.23
X1.8701Y-3.35
X1.8701Y-3.47
X1.8701Y-3.58
X1.8701Y-3.68
X1.8901Y-2.7302
X1.9101Y-1.3202
X1.9101Y-1.6202
X1.9592Y-5.3399
X1.9611Y-5.4678
X1.9611Y-5.5958
X1.9635Y-5.9954
X1.9641Y-5.8625
X1.9917Y-2.7302
X2.0101Y-1.09
X2.0661Y-0.7896
X2.0888Y-1.09
X2.0901Y-2.5902
X2.0901Y-2.7302
X2.1001Y-2.8602
X2.1401Y-1.7607
X2.1401Y-1.9002
X2.1401Y-2.0397
X2.1401Y-2.3202
X2.1401Y-2.4602
X2.1449Y-0.7896
X2.1701Y-2.99
X2.1701Y-3.11
X2.1701Y-3.23
X2.1701Y-3.35
X2.1701Y-3.47
X2.1701Y-3.58
X2.1701Y-3.68
T5
X1.2884Y-0.7754
X1.2884Y-0.8754
X1.3884Y-0.7754
X1.3884Y-0.8754
X1.4884Y-0.7754
X1.4884Y-0.8754
X1.5884Y-0.7754
X1.5884Y-0.8754
X1.6884Y-0.7754
X1.6884Y-0.8754
T6
X0.8301Y-2.0502
X0.8301Y-2.1502
X0.8301Y-2.2502
X0.8314Y-5.3
X0.8314Y-5.4
X0.8314Y-5.5
X0.8401Y-1.1552
X0.8401Y-1.2552
X0.8401Y-1.3552
X0.8401Y-1.4552
X0.8414Y-4.405
X0.8414Y-4.505
X0.8414Y-4.605
X0.8414Y-4.705
X2.2071Y-1.3302
X2.2071Y-1.4302
X2.2071Y-1.5302
X2.2071Y-1.6302
X2.2084Y-4.58
X2.2084Y-4.68
X2.2084Y-4.78
X2.2084Y-4.88
X2.2201Y-2.6504
X2.2201Y-2.7504
X2.2201Y-2.8504
X2.2214Y-5.9002
X2.2214Y-6.0002
X2.2214Y-6.1002
T7
X1.0247Y-6.1096
X1.1231Y-6.1096
X1.2216Y-6.1096
X1.4243Y-4.8901
X1.5228Y-4.8901
X1.6212Y-4.8901
X1.8249Y-6.7109
X1.9233Y-6.7109
X2.0218Y-6.7109
T8
X0.9233Y-6.3562
X0.9233Y-6.9562
X0.9233Y-7.5552
X1.3233Y-6.9562
X1.3233Y-7.5552
X1.7233Y-6.9562
X1.7233Y-7.5552
X2.1233Y-6.9562
X2.1233Y-7.5552
T9
X0.9233Y-6.4783
X0.9233Y-7.0783
X0.9233Y-7.6773
X1.3233Y-7.0783
X1.3233Y-7.6773
X1.7233Y-7.0783
X1.7233Y-7.6773
X2.1233Y-7.0783
X2.1233Y-7.6773
T10
X0.9233Y-6.805
X0.9233Y-7.405
X0.9233Y-8.0041
X1.3233Y-7.405
X1.3233Y-8.0041
X1.7233Y-7.405
X1.7233Y-8.0041
X2.1233Y-7.405
X2.1233Y-8.0041
T11
X1.3233Y-6.5113
X1.3233Y-6.6113
X1.3233Y-6.7113
T12
X0.9342Y-5.8143
X1.3121Y-5.8143
X1.3338Y-4.5948
X1.7117Y-4.5948
X1.7344Y-6.4157
X2.1123Y-6.4157
T0
M30
