%TF.GenerationSoftware,KiCad,Pcbnew,(6.0.4)*%
%TF.CreationDate,2022-06-07T18:20:15+01:00*%
%TF.ProjectId,panelized-boards,70616e65-6c69-47a6-9564-2d626f617264,rev?*%
%TF.SameCoordinates,Original*%
%TF.FileFunction,Soldermask,Bot*%
%TF.FilePolarity,Negative*%
%FSLAX46Y46*%
G04 Gerber Fmt 4.6, Leading zero omitted, Abs format (unit mm)*
G04 Created by KiCad (PCBNEW (6.0.4)) date 2022-06-07 18:20:15*
%MOMM*%
%LPD*%
G01*
G04 APERTURE LIST*
%ADD10R,1.600000X1.600000*%
%ADD11C,1.600000*%
%ADD12O,1.600000X1.600000*%
%ADD13R,1.700000X1.700000*%
%ADD14O,1.700000X1.700000*%
%ADD15C,1.400000*%
%ADD16C,1.650000*%
%ADD17C,3.495000*%
%ADD18R,1.200000X1.200000*%
%ADD19C,1.200000*%
%ADD20R,2.400000X1.600000*%
%ADD21O,2.400000X1.600000*%
%ADD22R,1.500000X1.050000*%
%ADD23O,1.500000X1.050000*%
%ADD24R,1.930000X1.830000*%
%ADD25C,2.130000*%
%ADD26C,0.500000*%
%ADD27O,3.000000X2.000000*%
%ADD28R,1.350000X1.350000*%
%ADD29C,1.350000*%
%ADD30C,1.440000*%
G04 APERTURE END LIST*
D10*
%TO.C,C13*%
X54480000Y-20057080D03*
D11*
X52480000Y-20057080D03*
%TD*%
%TO.C,R2*%
X24271000Y-51555080D03*
D12*
X31891000Y-51555080D03*
%TD*%
D13*
%TO.C,J16*%
X56060000Y-33787080D03*
D14*
X56060000Y-36327080D03*
X56060000Y-38867080D03*
X56060000Y-41407080D03*
%TD*%
D11*
%TO.C,R38*%
X42193000Y-142133000D03*
D12*
X49813000Y-142133000D03*
%TD*%
D15*
%TO.C,C6*%
X32303000Y-173636000D03*
X34803000Y-173636000D03*
%TD*%
D11*
%TO.C,R22*%
X47500000Y-78993080D03*
D12*
X55120000Y-78993080D03*
%TD*%
D16*
%TO.C,RV4*%
X26028000Y-155183000D03*
X28528000Y-155183000D03*
X31028000Y-155183000D03*
D17*
X23728000Y-147683000D03*
X33328000Y-147683000D03*
%TD*%
D11*
%TO.C,R30*%
X53088000Y-65791080D03*
D12*
X45468000Y-65791080D03*
%TD*%
D11*
%TO.C,R27*%
X24271000Y-69843080D03*
D12*
X31891000Y-69843080D03*
%TD*%
D11*
%TO.C,R24*%
X54358000Y-44721747D03*
D12*
X46738000Y-44721747D03*
%TD*%
D11*
%TO.C,R19*%
X29843000Y-159246000D03*
D12*
X37463000Y-159246000D03*
%TD*%
D11*
%TO.C,R25*%
X31891000Y-63753080D03*
D12*
X24271000Y-63753080D03*
%TD*%
D15*
%TO.C,C2*%
X30990000Y-27691080D03*
X30990000Y-30191080D03*
%TD*%
D18*
%TO.C,C12*%
X23468600Y-19885080D03*
D19*
X21968600Y-19885080D03*
%TD*%
D20*
%TO.C,U1*%
X35064000Y-67564080D03*
D21*
X35064000Y-70104080D03*
X35064000Y-72644080D03*
X35064000Y-75184080D03*
X35064000Y-77724080D03*
X35064000Y-80264080D03*
X35064000Y-82804080D03*
X42684000Y-82804080D03*
X42684000Y-80264080D03*
X42684000Y-77724080D03*
X42684000Y-75184080D03*
X42684000Y-72644080D03*
X42684000Y-70104080D03*
X42684000Y-67564080D03*
%TD*%
D11*
%TO.C,R14*%
X42268000Y-148908000D03*
D12*
X49888000Y-148908000D03*
%TD*%
D22*
%TO.C,U3*%
X35668000Y-30485080D03*
D23*
X35668000Y-29215080D03*
X35668000Y-27945080D03*
%TD*%
D11*
%TO.C,R33*%
X49763000Y-135633000D03*
D12*
X42143000Y-135633000D03*
%TD*%
D11*
%TO.C,R32*%
X55120000Y-88137080D03*
D12*
X47500000Y-88137080D03*
%TD*%
D10*
%TO.C,D2*%
X25548000Y-37469080D03*
D12*
X25548000Y-29849080D03*
%TD*%
D13*
%TO.C,J18*%
X21084000Y-52075080D03*
D14*
X21084000Y-54615080D03*
X21084000Y-57155080D03*
%TD*%
D13*
%TO.C,J20*%
X56390000Y-67321080D03*
D14*
X56390000Y-69861080D03*
X56390000Y-72401080D03*
%TD*%
D11*
%TO.C,R28*%
X46738000Y-58933080D03*
D12*
X54358000Y-58933080D03*
%TD*%
D11*
%TO.C,R15*%
X37848000Y-41153080D03*
D12*
X37848000Y-33533080D03*
%TD*%
D24*
%TO.C,J7*%
X53933000Y-191903000D03*
D25*
X53933000Y-203303000D03*
X53933000Y-195003000D03*
%TD*%
D11*
%TO.C,R39*%
X34447000Y-131318000D03*
D12*
X42067000Y-131318000D03*
%TD*%
D11*
%TO.C,C14*%
X45508000Y-69347080D03*
X48008000Y-69347080D03*
%TD*%
D26*
%TO.C,mouse-bite-2mm-slot*%
X25000000Y-96770000D03*
X26500000Y-96770000D03*
X25750000Y-98270000D03*
X25750000Y-96770000D03*
X26500000Y-98270000D03*
X25000000Y-98270000D03*
%TD*%
D11*
%TO.C,R36*%
X24271000Y-60699080D03*
D12*
X31891000Y-60699080D03*
%TD*%
D11*
%TO.C,R16*%
X24271000Y-75945080D03*
D12*
X31891000Y-75945080D03*
%TD*%
D11*
%TO.C,R29*%
X54358000Y-62489080D03*
D12*
X46738000Y-62489080D03*
%TD*%
D11*
%TO.C,R35*%
X31891000Y-54609080D03*
D12*
X24271000Y-54609080D03*
%TD*%
D11*
%TO.C,R11*%
X34447000Y-128270000D03*
D12*
X42067000Y-128270000D03*
%TD*%
D11*
%TO.C,R9*%
X23509000Y-90423080D03*
D12*
X31129000Y-90423080D03*
%TD*%
D15*
%TO.C,C3*%
X43560000Y-86295080D03*
X41060000Y-86295080D03*
%TD*%
D11*
%TO.C,R31*%
X24271000Y-57657080D03*
D12*
X31891000Y-57657080D03*
%TD*%
D11*
%TO.C,R34*%
X31891000Y-66795080D03*
D12*
X24271000Y-66795080D03*
%TD*%
D11*
%TO.C,R12*%
X24271000Y-72897080D03*
D12*
X31891000Y-72897080D03*
%TD*%
D11*
%TO.C,R1*%
X34292000Y-33533080D03*
D12*
X34292000Y-41153080D03*
%TD*%
D10*
%TO.C,C10*%
X51056000Y-27685080D03*
D11*
X53056000Y-27685080D03*
%TD*%
D15*
%TO.C,C4*%
X55334000Y-55135747D03*
X52834000Y-55135747D03*
%TD*%
%TO.C,C5*%
X45214000Y-30231080D03*
X45214000Y-27731080D03*
%TD*%
D20*
%TO.C,U2*%
X35039000Y-44470080D03*
D21*
X35039000Y-47010080D03*
X35039000Y-49550080D03*
X35039000Y-52090080D03*
X35039000Y-54630080D03*
X35039000Y-57170080D03*
X35039000Y-59710080D03*
X35039000Y-62250080D03*
X42659000Y-62250080D03*
X42659000Y-59710080D03*
X42659000Y-57170080D03*
X42659000Y-54630080D03*
X42659000Y-52090080D03*
X42659000Y-49550080D03*
X42659000Y-47010080D03*
X42659000Y-44470080D03*
%TD*%
D11*
%TO.C,R6*%
X35308000Y-90035080D03*
D12*
X42928000Y-90035080D03*
%TD*%
D11*
%TO.C,R5*%
X45214000Y-41147080D03*
D12*
X45214000Y-33527080D03*
%TD*%
D24*
%TO.C,J1*%
X33613000Y-191903000D03*
D25*
X33613000Y-203303000D03*
X33613000Y-195003000D03*
%TD*%
D15*
%TO.C,C8*%
X38853000Y-170733000D03*
X38853000Y-168233000D03*
%TD*%
D11*
%TO.C,R17*%
X53342000Y-72649080D03*
D12*
X45722000Y-72649080D03*
%TD*%
D11*
%TO.C,R7*%
X46738000Y-51808414D03*
D12*
X54358000Y-51808414D03*
%TD*%
D22*
%TO.C,U4*%
X40388000Y-27945080D03*
D23*
X40388000Y-29215080D03*
X40388000Y-30485080D03*
%TD*%
D10*
%TO.C,D3*%
X55120000Y-93471080D03*
D12*
X47500000Y-93471080D03*
%TD*%
D24*
%TO.C,J2*%
X43773000Y-191903000D03*
D25*
X43773000Y-203303000D03*
X43773000Y-195003000D03*
%TD*%
D11*
%TO.C,R18*%
X55120000Y-82041080D03*
D12*
X47500000Y-82041080D03*
%TD*%
D11*
%TO.C,C15*%
X50588000Y-69347080D03*
X53088000Y-69347080D03*
%TD*%
D24*
%TO.C,J4*%
X23453000Y-161448000D03*
D25*
X23453000Y-172848000D03*
X23453000Y-164548000D03*
%TD*%
D15*
%TO.C,C11*%
X52326000Y-38105080D03*
X52326000Y-35605080D03*
%TD*%
D11*
%TO.C,R13*%
X48516000Y-33533080D03*
D12*
X48516000Y-41153080D03*
%TD*%
D11*
%TO.C,R8*%
X42928000Y-93035080D03*
D12*
X35308000Y-93035080D03*
%TD*%
D26*
%TO.C,mouse-bite-2mm-slot*%
X51750000Y-98270000D03*
X50250000Y-96770000D03*
X51000000Y-96770000D03*
X50250000Y-98270000D03*
X51750000Y-96770000D03*
X51000000Y-98270000D03*
%TD*%
D27*
%TO.C,S1*%
X33613000Y-170468000D03*
X33613000Y-167928000D03*
X33613000Y-165388000D03*
%TD*%
D16*
%TO.C,RV3*%
X36178000Y-124208000D03*
X38678000Y-124208000D03*
X41178000Y-124208000D03*
D17*
X33878000Y-116708000D03*
X43478000Y-116708000D03*
%TD*%
D24*
%TO.C,J6*%
X43773000Y-176688000D03*
D25*
X43773000Y-188088000D03*
X43773000Y-179788000D03*
%TD*%
D16*
%TO.C,RV5*%
X46353000Y-170458000D03*
X48853000Y-170458000D03*
X51353000Y-170458000D03*
D17*
X44053000Y-162958000D03*
X53653000Y-162958000D03*
%TD*%
D11*
%TO.C,R10*%
X41404000Y-33533080D03*
D12*
X41404000Y-41153080D03*
%TD*%
D24*
%TO.C,J12*%
X23453000Y-191903000D03*
D25*
X23453000Y-203303000D03*
X23453000Y-195003000D03*
%TD*%
D24*
%TO.C,J8*%
X53933000Y-176688000D03*
D25*
X53933000Y-188088000D03*
X53933000Y-179788000D03*
%TD*%
D11*
%TO.C,R4*%
X46738000Y-48265080D03*
D12*
X54358000Y-48265080D03*
%TD*%
D18*
%TO.C,C9*%
X21873401Y-24835080D03*
D19*
X23373401Y-24835080D03*
%TD*%
D11*
%TO.C,R26*%
X42253000Y-152283000D03*
D12*
X49873000Y-152283000D03*
%TD*%
D13*
%TO.C,J14*%
X21338000Y-29341080D03*
D14*
X21338000Y-31881080D03*
X21338000Y-34421080D03*
X21338000Y-36961080D03*
%TD*%
D11*
%TO.C,R21*%
X47500000Y-75945080D03*
D12*
X55120000Y-75945080D03*
%TD*%
D24*
%TO.C,J3*%
X23453000Y-176688000D03*
D25*
X23453000Y-188088000D03*
X23453000Y-179788000D03*
%TD*%
D11*
%TO.C,R20*%
X47500000Y-85089080D03*
D12*
X55120000Y-85089080D03*
%TD*%
D11*
%TO.C,R23*%
X29853000Y-162283000D03*
D12*
X37473000Y-162283000D03*
%TD*%
D11*
%TO.C,R3*%
X42193000Y-138883000D03*
D12*
X49813000Y-138883000D03*
%TD*%
D10*
%TO.C,D1*%
X55120000Y-90931080D03*
D12*
X47500000Y-90931080D03*
%TD*%
D15*
%TO.C,C1*%
X46992000Y-55148414D03*
X49492000Y-55148414D03*
%TD*%
D24*
%TO.C,J5*%
X33613000Y-176688000D03*
D25*
X33613000Y-188088000D03*
X33613000Y-179788000D03*
%TD*%
D13*
%TO.C,J20*%
X56423000Y-149866000D03*
D14*
X56423000Y-152406000D03*
X56423000Y-154946000D03*
%TD*%
D28*
%TO.C,J9*%
X42886000Y-22235080D03*
D29*
X42886000Y-19695080D03*
X40346000Y-22235080D03*
X40346000Y-19695080D03*
X37806000Y-22235080D03*
X37806000Y-19695080D03*
X35266000Y-22235080D03*
X35266000Y-19695080D03*
X32726000Y-22235080D03*
X32726000Y-19695080D03*
%TD*%
D30*
%TO.C,RV6*%
X28448000Y-85851080D03*
X25908000Y-85851080D03*
X23368000Y-85851080D03*
%TD*%
D13*
%TO.C,J16*%
X56093000Y-116332000D03*
D14*
X56093000Y-118872000D03*
X56093000Y-121412000D03*
X56093000Y-123952000D03*
%TD*%
D30*
%TO.C,RV2*%
X28448000Y-41787080D03*
X25908000Y-41787080D03*
X23368000Y-41787080D03*
%TD*%
%TO.C,RV7*%
X28448000Y-80263080D03*
X25908000Y-80263080D03*
X23368000Y-80263080D03*
%TD*%
D13*
%TO.C,J18*%
X21117000Y-134620000D03*
D14*
X21117000Y-137160000D03*
X21117000Y-139700000D03*
%TD*%
D30*
%TO.C,RV1*%
X28446000Y-47285080D03*
X25906000Y-47285080D03*
X23366000Y-47285080D03*
%TD*%
D13*
%TO.C,J14*%
X21371000Y-111886000D03*
D14*
X21371000Y-114426000D03*
X21371000Y-116966000D03*
X21371000Y-119506000D03*
%TD*%
M02*
