%TF.GenerationSoftware,KiCad,Pcbnew,(6.0.4)*%
%TF.CreationDate,2022-06-07T17:20:58+01:00*%
%TF.ProjectId,control-board,636f6e74-726f-46c2-9d62-6f6172642e6b,rev?*%
%TF.SameCoordinates,Original*%
%TF.FileFunction,Legend,Top*%
%TF.FilePolarity,Positive*%
%FSLAX46Y46*%
G04 Gerber Fmt 4.6, Leading zero omitted, Abs format (unit mm)*
G04 Created by KiCad (PCBNEW (6.0.4)) date 2022-06-07 17:20:58*
%MOMM*%
%LPD*%
G01*
G04 APERTURE LIST*
%ADD10C,0.150000*%
%ADD11C,0.254000*%
%ADD12C,0.120000*%
%ADD13C,0.100000*%
%ADD14C,0.300000*%
G04 APERTURE END LIST*
D10*
%TO.C,J8*%
X45856666Y-93908380D02*
X45856666Y-94622666D01*
X45809047Y-94765523D01*
X45713809Y-94860761D01*
X45570952Y-94908380D01*
X45475714Y-94908380D01*
X46475714Y-94336952D02*
X46380476Y-94289333D01*
X46332857Y-94241714D01*
X46285238Y-94146476D01*
X46285238Y-94098857D01*
X46332857Y-94003619D01*
X46380476Y-93956000D01*
X46475714Y-93908380D01*
X46666190Y-93908380D01*
X46761428Y-93956000D01*
X46809047Y-94003619D01*
X46856666Y-94098857D01*
X46856666Y-94146476D01*
X46809047Y-94241714D01*
X46761428Y-94289333D01*
X46666190Y-94336952D01*
X46475714Y-94336952D01*
X46380476Y-94384571D01*
X46332857Y-94432190D01*
X46285238Y-94527428D01*
X46285238Y-94717904D01*
X46332857Y-94813142D01*
X46380476Y-94860761D01*
X46475714Y-94908380D01*
X46666190Y-94908380D01*
X46761428Y-94860761D01*
X46809047Y-94813142D01*
X46856666Y-94717904D01*
X46856666Y-94527428D01*
X46809047Y-94432190D01*
X46761428Y-94384571D01*
X46666190Y-94336952D01*
%TO.C,R19*%
X29297142Y-76354380D02*
X28963809Y-75878190D01*
X28725714Y-76354380D02*
X28725714Y-75354380D01*
X29106666Y-75354380D01*
X29201904Y-75402000D01*
X29249523Y-75449619D01*
X29297142Y-75544857D01*
X29297142Y-75687714D01*
X29249523Y-75782952D01*
X29201904Y-75830571D01*
X29106666Y-75878190D01*
X28725714Y-75878190D01*
X30249523Y-76354380D02*
X29678095Y-76354380D01*
X29963809Y-76354380D02*
X29963809Y-75354380D01*
X29868571Y-75497238D01*
X29773333Y-75592476D01*
X29678095Y-75640095D01*
X30725714Y-76354380D02*
X30916190Y-76354380D01*
X31011428Y-76306761D01*
X31059047Y-76259142D01*
X31154285Y-76116285D01*
X31201904Y-75925809D01*
X31201904Y-75544857D01*
X31154285Y-75449619D01*
X31106666Y-75402000D01*
X31011428Y-75354380D01*
X30820952Y-75354380D01*
X30725714Y-75402000D01*
X30678095Y-75449619D01*
X30630476Y-75544857D01*
X30630476Y-75782952D01*
X30678095Y-75878190D01*
X30725714Y-75925809D01*
X30820952Y-75973428D01*
X31011428Y-75973428D01*
X31106666Y-75925809D01*
X31154285Y-75878190D01*
X31201904Y-75782952D01*
%TO.C,J4*%
X16546666Y-78668380D02*
X16546666Y-79382666D01*
X16499047Y-79525523D01*
X16403809Y-79620761D01*
X16260952Y-79668380D01*
X16165714Y-79668380D01*
X17451428Y-79001714D02*
X17451428Y-79668380D01*
X17213333Y-78620761D02*
X16975238Y-79335047D01*
X17594285Y-79335047D01*
%TO.C,S1*%
X26784761Y-85375904D02*
X26832380Y-85233047D01*
X26832380Y-84994952D01*
X26784761Y-84899714D01*
X26737142Y-84852095D01*
X26641904Y-84804476D01*
X26546666Y-84804476D01*
X26451428Y-84852095D01*
X26403809Y-84899714D01*
X26356190Y-84994952D01*
X26308571Y-85185428D01*
X26260952Y-85280666D01*
X26213333Y-85328285D01*
X26118095Y-85375904D01*
X26022857Y-85375904D01*
X25927619Y-85328285D01*
X25880000Y-85280666D01*
X25832380Y-85185428D01*
X25832380Y-84947333D01*
X25880000Y-84804476D01*
X26832380Y-83852095D02*
X26832380Y-84423523D01*
X26832380Y-84137809D02*
X25832380Y-84137809D01*
X25975238Y-84233047D01*
X26070476Y-84328285D01*
X26118095Y-84423523D01*
D11*
%TO.C,RV4*%
X24059047Y-67045523D02*
X23635714Y-66440761D01*
X23333333Y-67045523D02*
X23333333Y-65775523D01*
X23817142Y-65775523D01*
X23938095Y-65836000D01*
X23998571Y-65896476D01*
X24059047Y-66017428D01*
X24059047Y-66198857D01*
X23998571Y-66319809D01*
X23938095Y-66380285D01*
X23817142Y-66440761D01*
X23333333Y-66440761D01*
X24421904Y-65775523D02*
X24845238Y-67045523D01*
X25268571Y-65775523D01*
X26236190Y-66198857D02*
X26236190Y-67045523D01*
X25933809Y-65715047D02*
X25631428Y-66622190D01*
X26417619Y-66622190D01*
D10*
%TO.C,R14*%
X41722142Y-66066380D02*
X41388809Y-65590190D01*
X41150714Y-66066380D02*
X41150714Y-65066380D01*
X41531666Y-65066380D01*
X41626904Y-65114000D01*
X41674523Y-65161619D01*
X41722142Y-65256857D01*
X41722142Y-65399714D01*
X41674523Y-65494952D01*
X41626904Y-65542571D01*
X41531666Y-65590190D01*
X41150714Y-65590190D01*
X42674523Y-66066380D02*
X42103095Y-66066380D01*
X42388809Y-66066380D02*
X42388809Y-65066380D01*
X42293571Y-65209238D01*
X42198333Y-65304476D01*
X42103095Y-65352095D01*
X43531666Y-65399714D02*
X43531666Y-66066380D01*
X43293571Y-65018761D02*
X43055476Y-65733047D01*
X43674523Y-65733047D01*
%TO.C,J6*%
X35696666Y-93908380D02*
X35696666Y-94622666D01*
X35649047Y-94765523D01*
X35553809Y-94860761D01*
X35410952Y-94908380D01*
X35315714Y-94908380D01*
X36601428Y-93908380D02*
X36410952Y-93908380D01*
X36315714Y-93956000D01*
X36268095Y-94003619D01*
X36172857Y-94146476D01*
X36125238Y-94336952D01*
X36125238Y-94717904D01*
X36172857Y-94813142D01*
X36220476Y-94860761D01*
X36315714Y-94908380D01*
X36506190Y-94908380D01*
X36601428Y-94860761D01*
X36649047Y-94813142D01*
X36696666Y-94717904D01*
X36696666Y-94479809D01*
X36649047Y-94384571D01*
X36601428Y-94336952D01*
X36506190Y-94289333D01*
X36315714Y-94289333D01*
X36220476Y-94336952D01*
X36172857Y-94384571D01*
X36125238Y-94479809D01*
%TO.C,R11*%
X33901142Y-45316380D02*
X33567809Y-44840190D01*
X33329714Y-45316380D02*
X33329714Y-44316380D01*
X33710666Y-44316380D01*
X33805904Y-44364000D01*
X33853523Y-44411619D01*
X33901142Y-44506857D01*
X33901142Y-44649714D01*
X33853523Y-44744952D01*
X33805904Y-44792571D01*
X33710666Y-44840190D01*
X33329714Y-44840190D01*
X34853523Y-45316380D02*
X34282095Y-45316380D01*
X34567809Y-45316380D02*
X34567809Y-44316380D01*
X34472571Y-44459238D01*
X34377333Y-44554476D01*
X34282095Y-44602095D01*
X35805904Y-45316380D02*
X35234476Y-45316380D01*
X35520190Y-45316380D02*
X35520190Y-44316380D01*
X35424952Y-44459238D01*
X35329714Y-44554476D01*
X35234476Y-44602095D01*
%TO.C,J1*%
X25536666Y-109123380D02*
X25536666Y-109837666D01*
X25489047Y-109980523D01*
X25393809Y-110075761D01*
X25250952Y-110123380D01*
X25155714Y-110123380D01*
X26536666Y-110123380D02*
X25965238Y-110123380D01*
X26250952Y-110123380D02*
X26250952Y-109123380D01*
X26155714Y-109266238D01*
X26060476Y-109361476D01*
X25965238Y-109409095D01*
D11*
%TO.C,RV3*%
X34209047Y-36070523D02*
X33785714Y-35465761D01*
X33483333Y-36070523D02*
X33483333Y-34800523D01*
X33967142Y-34800523D01*
X34088095Y-34861000D01*
X34148571Y-34921476D01*
X34209047Y-35042428D01*
X34209047Y-35223857D01*
X34148571Y-35344809D01*
X34088095Y-35405285D01*
X33967142Y-35465761D01*
X33483333Y-35465761D01*
X34571904Y-34800523D02*
X34995238Y-36070523D01*
X35418571Y-34800523D01*
X35720952Y-34800523D02*
X36507142Y-34800523D01*
X36083809Y-35284333D01*
X36265238Y-35284333D01*
X36386190Y-35344809D01*
X36446666Y-35405285D01*
X36507142Y-35526238D01*
X36507142Y-35828619D01*
X36446666Y-35949571D01*
X36386190Y-36010047D01*
X36265238Y-36070523D01*
X35902380Y-36070523D01*
X35781428Y-36010047D01*
X35720952Y-35949571D01*
%TO.C,RV5*%
X44384047Y-82320523D02*
X43960714Y-81715761D01*
X43658333Y-82320523D02*
X43658333Y-81050523D01*
X44142142Y-81050523D01*
X44263095Y-81111000D01*
X44323571Y-81171476D01*
X44384047Y-81292428D01*
X44384047Y-81473857D01*
X44323571Y-81594809D01*
X44263095Y-81655285D01*
X44142142Y-81715761D01*
X43658333Y-81715761D01*
X44746904Y-81050523D02*
X45170238Y-82320523D01*
X45593571Y-81050523D01*
X46621666Y-81050523D02*
X46016904Y-81050523D01*
X45956428Y-81655285D01*
X46016904Y-81594809D01*
X46137857Y-81534333D01*
X46440238Y-81534333D01*
X46561190Y-81594809D01*
X46621666Y-81655285D01*
X46682142Y-81776238D01*
X46682142Y-82078619D01*
X46621666Y-82199571D01*
X46561190Y-82260047D01*
X46440238Y-82320523D01*
X46137857Y-82320523D01*
X46016904Y-82260047D01*
X45956428Y-82199571D01*
D10*
%TO.C,J12*%
X16320476Y-109123380D02*
X16320476Y-109837666D01*
X16272857Y-109980523D01*
X16177619Y-110075761D01*
X16034761Y-110123380D01*
X15939523Y-110123380D01*
X17320476Y-110123380D02*
X16749047Y-110123380D01*
X17034761Y-110123380D02*
X17034761Y-109123380D01*
X16939523Y-109266238D01*
X16844285Y-109361476D01*
X16749047Y-109409095D01*
X17701428Y-109218619D02*
X17749047Y-109171000D01*
X17844285Y-109123380D01*
X18082380Y-109123380D01*
X18177619Y-109171000D01*
X18225238Y-109218619D01*
X18272857Y-109313857D01*
X18272857Y-109409095D01*
X18225238Y-109551952D01*
X17653809Y-110123380D01*
X18272857Y-110123380D01*
%TO.C,J2*%
X35696666Y-109123380D02*
X35696666Y-109837666D01*
X35649047Y-109980523D01*
X35553809Y-110075761D01*
X35410952Y-110123380D01*
X35315714Y-110123380D01*
X36125238Y-109218619D02*
X36172857Y-109171000D01*
X36268095Y-109123380D01*
X36506190Y-109123380D01*
X36601428Y-109171000D01*
X36649047Y-109218619D01*
X36696666Y-109313857D01*
X36696666Y-109409095D01*
X36649047Y-109551952D01*
X36077619Y-110123380D01*
X36696666Y-110123380D01*
%TO.C,J3*%
X16546666Y-93816380D02*
X16546666Y-94530666D01*
X16499047Y-94673523D01*
X16403809Y-94768761D01*
X16260952Y-94816380D01*
X16165714Y-94816380D01*
X16927619Y-93816380D02*
X17546666Y-93816380D01*
X17213333Y-94197333D01*
X17356190Y-94197333D01*
X17451428Y-94244952D01*
X17499047Y-94292571D01*
X17546666Y-94387809D01*
X17546666Y-94625904D01*
X17499047Y-94721142D01*
X17451428Y-94768761D01*
X17356190Y-94816380D01*
X17070476Y-94816380D01*
X16975238Y-94768761D01*
X16927619Y-94721142D01*
%TO.C,R3*%
X41963333Y-56066380D02*
X41630000Y-55590190D01*
X41391904Y-56066380D02*
X41391904Y-55066380D01*
X41772857Y-55066380D01*
X41868095Y-55114000D01*
X41915714Y-55161619D01*
X41963333Y-55256857D01*
X41963333Y-55399714D01*
X41915714Y-55494952D01*
X41868095Y-55542571D01*
X41772857Y-55590190D01*
X41391904Y-55590190D01*
X42296666Y-55066380D02*
X42915714Y-55066380D01*
X42582380Y-55447333D01*
X42725238Y-55447333D01*
X42820476Y-55494952D01*
X42868095Y-55542571D01*
X42915714Y-55637809D01*
X42915714Y-55875904D01*
X42868095Y-55971142D01*
X42820476Y-56018761D01*
X42725238Y-56066380D01*
X42439523Y-56066380D01*
X42344285Y-56018761D01*
X42296666Y-55971142D01*
%TO.C,C6*%
X26737142Y-90780666D02*
X26784761Y-90828285D01*
X26832380Y-90971142D01*
X26832380Y-91066380D01*
X26784761Y-91209238D01*
X26689523Y-91304476D01*
X26594285Y-91352095D01*
X26403809Y-91399714D01*
X26260952Y-91399714D01*
X26070476Y-91352095D01*
X25975238Y-91304476D01*
X25880000Y-91209238D01*
X25832380Y-91066380D01*
X25832380Y-90971142D01*
X25880000Y-90828285D01*
X25927619Y-90780666D01*
X25832380Y-89923523D02*
X25832380Y-90114000D01*
X25880000Y-90209238D01*
X25927619Y-90256857D01*
X26070476Y-90352095D01*
X26260952Y-90399714D01*
X26641904Y-90399714D01*
X26737142Y-90352095D01*
X26784761Y-90304476D01*
X26832380Y-90209238D01*
X26832380Y-90018761D01*
X26784761Y-89923523D01*
X26737142Y-89875904D01*
X26641904Y-89828285D01*
X26403809Y-89828285D01*
X26308571Y-89875904D01*
X26260952Y-89923523D01*
X26213333Y-90018761D01*
X26213333Y-90209238D01*
X26260952Y-90304476D01*
X26308571Y-90352095D01*
X26403809Y-90399714D01*
%TO.C,R26*%
X41707142Y-69316380D02*
X41373809Y-68840190D01*
X41135714Y-69316380D02*
X41135714Y-68316380D01*
X41516666Y-68316380D01*
X41611904Y-68364000D01*
X41659523Y-68411619D01*
X41707142Y-68506857D01*
X41707142Y-68649714D01*
X41659523Y-68744952D01*
X41611904Y-68792571D01*
X41516666Y-68840190D01*
X41135714Y-68840190D01*
X42088095Y-68411619D02*
X42135714Y-68364000D01*
X42230952Y-68316380D01*
X42469047Y-68316380D01*
X42564285Y-68364000D01*
X42611904Y-68411619D01*
X42659523Y-68506857D01*
X42659523Y-68602095D01*
X42611904Y-68744952D01*
X42040476Y-69316380D01*
X42659523Y-69316380D01*
X43516666Y-68316380D02*
X43326190Y-68316380D01*
X43230952Y-68364000D01*
X43183333Y-68411619D01*
X43088095Y-68554476D01*
X43040476Y-68744952D01*
X43040476Y-69125904D01*
X43088095Y-69221142D01*
X43135714Y-69268761D01*
X43230952Y-69316380D01*
X43421428Y-69316380D01*
X43516666Y-69268761D01*
X43564285Y-69221142D01*
X43611904Y-69125904D01*
X43611904Y-68887809D01*
X43564285Y-68792571D01*
X43516666Y-68744952D01*
X43421428Y-68697333D01*
X43230952Y-68697333D01*
X43135714Y-68744952D01*
X43088095Y-68792571D01*
X43040476Y-68887809D01*
%TO.C,J5*%
X25536666Y-93908380D02*
X25536666Y-94622666D01*
X25489047Y-94765523D01*
X25393809Y-94860761D01*
X25250952Y-94908380D01*
X25155714Y-94908380D01*
X26489047Y-93908380D02*
X26012857Y-93908380D01*
X25965238Y-94384571D01*
X26012857Y-94336952D01*
X26108095Y-94289333D01*
X26346190Y-94289333D01*
X26441428Y-94336952D01*
X26489047Y-94384571D01*
X26536666Y-94479809D01*
X26536666Y-94717904D01*
X26489047Y-94813142D01*
X26441428Y-94860761D01*
X26346190Y-94908380D01*
X26108095Y-94908380D01*
X26012857Y-94860761D01*
X25965238Y-94813142D01*
%TO.C,C8*%
X38237142Y-86337666D02*
X38284761Y-86385285D01*
X38332380Y-86528142D01*
X38332380Y-86623380D01*
X38284761Y-86766238D01*
X38189523Y-86861476D01*
X38094285Y-86909095D01*
X37903809Y-86956714D01*
X37760952Y-86956714D01*
X37570476Y-86909095D01*
X37475238Y-86861476D01*
X37380000Y-86766238D01*
X37332380Y-86623380D01*
X37332380Y-86528142D01*
X37380000Y-86385285D01*
X37427619Y-86337666D01*
X37760952Y-85766238D02*
X37713333Y-85861476D01*
X37665714Y-85909095D01*
X37570476Y-85956714D01*
X37522857Y-85956714D01*
X37427619Y-85909095D01*
X37380000Y-85861476D01*
X37332380Y-85766238D01*
X37332380Y-85575761D01*
X37380000Y-85480523D01*
X37427619Y-85432904D01*
X37522857Y-85385285D01*
X37570476Y-85385285D01*
X37665714Y-85432904D01*
X37713333Y-85480523D01*
X37760952Y-85575761D01*
X37760952Y-85766238D01*
X37808571Y-85861476D01*
X37856190Y-85909095D01*
X37951428Y-85956714D01*
X38141904Y-85956714D01*
X38237142Y-85909095D01*
X38284761Y-85861476D01*
X38332380Y-85766238D01*
X38332380Y-85575761D01*
X38284761Y-85480523D01*
X38237142Y-85432904D01*
X38141904Y-85385285D01*
X37951428Y-85385285D01*
X37856190Y-85432904D01*
X37808571Y-85480523D01*
X37760952Y-85575761D01*
%TO.C,R23*%
X29307142Y-79566380D02*
X28973809Y-79090190D01*
X28735714Y-79566380D02*
X28735714Y-78566380D01*
X29116666Y-78566380D01*
X29211904Y-78614000D01*
X29259523Y-78661619D01*
X29307142Y-78756857D01*
X29307142Y-78899714D01*
X29259523Y-78994952D01*
X29211904Y-79042571D01*
X29116666Y-79090190D01*
X28735714Y-79090190D01*
X29688095Y-78661619D02*
X29735714Y-78614000D01*
X29830952Y-78566380D01*
X30069047Y-78566380D01*
X30164285Y-78614000D01*
X30211904Y-78661619D01*
X30259523Y-78756857D01*
X30259523Y-78852095D01*
X30211904Y-78994952D01*
X29640476Y-79566380D01*
X30259523Y-79566380D01*
X30592857Y-78566380D02*
X31211904Y-78566380D01*
X30878571Y-78947333D01*
X31021428Y-78947333D01*
X31116666Y-78994952D01*
X31164285Y-79042571D01*
X31211904Y-79137809D01*
X31211904Y-79375904D01*
X31164285Y-79471142D01*
X31116666Y-79518761D01*
X31021428Y-79566380D01*
X30735714Y-79566380D01*
X30640476Y-79518761D01*
X30592857Y-79471142D01*
%TO.C,R39*%
X33901142Y-48316380D02*
X33567809Y-47840190D01*
X33329714Y-48316380D02*
X33329714Y-47316380D01*
X33710666Y-47316380D01*
X33805904Y-47364000D01*
X33853523Y-47411619D01*
X33901142Y-47506857D01*
X33901142Y-47649714D01*
X33853523Y-47744952D01*
X33805904Y-47792571D01*
X33710666Y-47840190D01*
X33329714Y-47840190D01*
X34234476Y-47316380D02*
X34853523Y-47316380D01*
X34520190Y-47697333D01*
X34663047Y-47697333D01*
X34758285Y-47744952D01*
X34805904Y-47792571D01*
X34853523Y-47887809D01*
X34853523Y-48125904D01*
X34805904Y-48221142D01*
X34758285Y-48268761D01*
X34663047Y-48316380D01*
X34377333Y-48316380D01*
X34282095Y-48268761D01*
X34234476Y-48221142D01*
X35329714Y-48316380D02*
X35520190Y-48316380D01*
X35615428Y-48268761D01*
X35663047Y-48221142D01*
X35758285Y-48078285D01*
X35805904Y-47887809D01*
X35805904Y-47506857D01*
X35758285Y-47411619D01*
X35710666Y-47364000D01*
X35615428Y-47316380D01*
X35424952Y-47316380D01*
X35329714Y-47364000D01*
X35282095Y-47411619D01*
X35234476Y-47506857D01*
X35234476Y-47744952D01*
X35282095Y-47840190D01*
X35329714Y-47887809D01*
X35424952Y-47935428D01*
X35615428Y-47935428D01*
X35710666Y-47887809D01*
X35758285Y-47840190D01*
X35805904Y-47744952D01*
%TO.C,R38*%
X41647142Y-59316380D02*
X41313809Y-58840190D01*
X41075714Y-59316380D02*
X41075714Y-58316380D01*
X41456666Y-58316380D01*
X41551904Y-58364000D01*
X41599523Y-58411619D01*
X41647142Y-58506857D01*
X41647142Y-58649714D01*
X41599523Y-58744952D01*
X41551904Y-58792571D01*
X41456666Y-58840190D01*
X41075714Y-58840190D01*
X41980476Y-58316380D02*
X42599523Y-58316380D01*
X42266190Y-58697333D01*
X42409047Y-58697333D01*
X42504285Y-58744952D01*
X42551904Y-58792571D01*
X42599523Y-58887809D01*
X42599523Y-59125904D01*
X42551904Y-59221142D01*
X42504285Y-59268761D01*
X42409047Y-59316380D01*
X42123333Y-59316380D01*
X42028095Y-59268761D01*
X41980476Y-59221142D01*
X43170952Y-58744952D02*
X43075714Y-58697333D01*
X43028095Y-58649714D01*
X42980476Y-58554476D01*
X42980476Y-58506857D01*
X43028095Y-58411619D01*
X43075714Y-58364000D01*
X43170952Y-58316380D01*
X43361428Y-58316380D01*
X43456666Y-58364000D01*
X43504285Y-58411619D01*
X43551904Y-58506857D01*
X43551904Y-58554476D01*
X43504285Y-58649714D01*
X43456666Y-58697333D01*
X43361428Y-58744952D01*
X43170952Y-58744952D01*
X43075714Y-58792571D01*
X43028095Y-58840190D01*
X42980476Y-58935428D01*
X42980476Y-59125904D01*
X43028095Y-59221142D01*
X43075714Y-59268761D01*
X43170952Y-59316380D01*
X43361428Y-59316380D01*
X43456666Y-59268761D01*
X43504285Y-59221142D01*
X43551904Y-59125904D01*
X43551904Y-58935428D01*
X43504285Y-58840190D01*
X43456666Y-58792571D01*
X43361428Y-58744952D01*
%TO.C,J7*%
X45856666Y-109123380D02*
X45856666Y-109837666D01*
X45809047Y-109980523D01*
X45713809Y-110075761D01*
X45570952Y-110123380D01*
X45475714Y-110123380D01*
X46237619Y-109123380D02*
X46904285Y-109123380D01*
X46475714Y-110123380D01*
%TO.C,R33*%
X41487142Y-52816380D02*
X41153809Y-52340190D01*
X40915714Y-52816380D02*
X40915714Y-51816380D01*
X41296666Y-51816380D01*
X41391904Y-51864000D01*
X41439523Y-51911619D01*
X41487142Y-52006857D01*
X41487142Y-52149714D01*
X41439523Y-52244952D01*
X41391904Y-52292571D01*
X41296666Y-52340190D01*
X40915714Y-52340190D01*
X41820476Y-51816380D02*
X42439523Y-51816380D01*
X42106190Y-52197333D01*
X42249047Y-52197333D01*
X42344285Y-52244952D01*
X42391904Y-52292571D01*
X42439523Y-52387809D01*
X42439523Y-52625904D01*
X42391904Y-52721142D01*
X42344285Y-52768761D01*
X42249047Y-52816380D01*
X41963333Y-52816380D01*
X41868095Y-52768761D01*
X41820476Y-52721142D01*
X42772857Y-51816380D02*
X43391904Y-51816380D01*
X43058571Y-52197333D01*
X43201428Y-52197333D01*
X43296666Y-52244952D01*
X43344285Y-52292571D01*
X43391904Y-52387809D01*
X43391904Y-52625904D01*
X43344285Y-52721142D01*
X43296666Y-52768761D01*
X43201428Y-52816380D01*
X42915714Y-52816380D01*
X42820476Y-52768761D01*
X42772857Y-52721142D01*
D12*
%TO.C,J8*%
X48990000Y-92206000D02*
X49850000Y-92206000D01*
X54720000Y-95356000D02*
X54720000Y-105856000D01*
X49420000Y-105856000D02*
X45720000Y-105856000D01*
X48990000Y-92206000D02*
X48990000Y-93006000D01*
X54720000Y-105856000D02*
X51020000Y-105856000D01*
X49500000Y-95356000D02*
X45720000Y-95356000D01*
X45720000Y-95356000D02*
X45720000Y-105856000D01*
X54720000Y-95356000D02*
X50940000Y-95356000D01*
X52020000Y-99856000D02*
G75*
G03*
X52020000Y-99856000I-1800000J0D01*
G01*
%TO.C,R19*%
X26670000Y-74564000D02*
X33210000Y-74564000D01*
X33210000Y-74564000D02*
X33210000Y-74894000D01*
X26670000Y-76974000D02*
X26670000Y-77304000D01*
X26670000Y-77304000D02*
X33210000Y-77304000D01*
X33210000Y-77304000D02*
X33210000Y-76974000D01*
X26670000Y-74894000D02*
X26670000Y-74564000D01*
%TO.C,J4*%
X15240000Y-80116000D02*
X15240000Y-90616000D01*
X18940000Y-90616000D02*
X15240000Y-90616000D01*
X18510000Y-76966000D02*
X18510000Y-77766000D01*
X24240000Y-90616000D02*
X20540000Y-90616000D01*
X24240000Y-80116000D02*
X20460000Y-80116000D01*
X18510000Y-76966000D02*
X19370000Y-76966000D01*
X19020000Y-80116000D02*
X15240000Y-80116000D01*
X24240000Y-80116000D02*
X24240000Y-90616000D01*
X21540000Y-84616000D02*
G75*
G03*
X21540000Y-84616000I-1800000J0D01*
G01*
%TO.C,S1*%
X27360000Y-88681000D02*
X32440000Y-88681000D01*
X32440000Y-88681000D02*
X32440000Y-80551000D01*
X32440000Y-80551000D02*
X27360000Y-80551000D01*
X27360000Y-80551000D02*
X27360000Y-88681000D01*
D13*
%TO.C,RV4*%
X20065000Y-70871000D02*
X29565000Y-70871000D01*
X29565000Y-70871000D02*
X29565000Y-66371000D01*
X20015000Y-66371000D02*
X20065000Y-70871000D01*
D14*
X21715000Y-73371000D02*
X21715000Y-73371000D01*
D13*
X20065000Y-59521000D02*
X29565000Y-59521000D01*
D14*
X21815000Y-73371000D02*
X21815000Y-73371000D01*
D13*
X20015000Y-62371000D02*
X20065000Y-59521000D01*
X29565000Y-59521000D02*
X29565000Y-62371000D01*
D14*
X21715000Y-73371000D02*
G75*
G03*
X21815000Y-73371000I50000J0D01*
G01*
X21815000Y-73371000D02*
G75*
G03*
X21715000Y-73371000I-50000J0D01*
G01*
D12*
%TO.C,R14*%
X39095000Y-64226000D02*
X45635000Y-64226000D01*
X45635000Y-66966000D02*
X45635000Y-66636000D01*
X39095000Y-66636000D02*
X39095000Y-66966000D01*
X39095000Y-66966000D02*
X45635000Y-66966000D01*
X45635000Y-64226000D02*
X45635000Y-64556000D01*
X39095000Y-64556000D02*
X39095000Y-64226000D01*
%TO.C,J6*%
X44560000Y-95356000D02*
X44560000Y-105856000D01*
X44560000Y-105856000D02*
X40860000Y-105856000D01*
X38830000Y-92206000D02*
X38830000Y-93006000D01*
X35560000Y-95356000D02*
X35560000Y-105856000D01*
X39260000Y-105856000D02*
X35560000Y-105856000D01*
X39340000Y-95356000D02*
X35560000Y-95356000D01*
X44560000Y-95356000D02*
X40780000Y-95356000D01*
X38830000Y-92206000D02*
X39690000Y-92206000D01*
X41860000Y-99856000D02*
G75*
G03*
X41860000Y-99856000I-1800000J0D01*
G01*
%TO.C,R11*%
X31274000Y-45998000D02*
X31274000Y-46328000D01*
X31274000Y-46328000D02*
X37814000Y-46328000D01*
X37814000Y-43588000D02*
X37814000Y-43918000D01*
X37814000Y-46328000D02*
X37814000Y-45998000D01*
X31274000Y-43918000D02*
X31274000Y-43588000D01*
X31274000Y-43588000D02*
X37814000Y-43588000D01*
%TO.C,J1*%
X28670000Y-107421000D02*
X29530000Y-107421000D01*
X34400000Y-110571000D02*
X34400000Y-121071000D01*
X28670000Y-107421000D02*
X28670000Y-108221000D01*
X25400000Y-110571000D02*
X25400000Y-121071000D01*
X34400000Y-121071000D02*
X30700000Y-121071000D01*
X29100000Y-121071000D02*
X25400000Y-121071000D01*
X34400000Y-110571000D02*
X30620000Y-110571000D01*
X29180000Y-110571000D02*
X25400000Y-110571000D01*
X31700000Y-115071000D02*
G75*
G03*
X31700000Y-115071000I-1800000J0D01*
G01*
D13*
%TO.C,RV3*%
X39715000Y-28546000D02*
X39715000Y-31396000D01*
X30215000Y-39896000D02*
X39715000Y-39896000D01*
X30215000Y-28546000D02*
X39715000Y-28546000D01*
D14*
X31965000Y-42396000D02*
X31965000Y-42396000D01*
D13*
X39715000Y-39896000D02*
X39715000Y-35396000D01*
D14*
X31865000Y-42396000D02*
X31865000Y-42396000D01*
D13*
X30165000Y-35396000D02*
X30215000Y-39896000D01*
X30165000Y-31396000D02*
X30215000Y-28546000D01*
D14*
X31965000Y-42396000D02*
G75*
G03*
X31865000Y-42396000I-50000J0D01*
G01*
X31865000Y-42396000D02*
G75*
G03*
X31965000Y-42396000I50000J0D01*
G01*
D13*
%TO.C,RV5*%
X40340000Y-81646000D02*
X40390000Y-86146000D01*
X40340000Y-77646000D02*
X40390000Y-74796000D01*
X49890000Y-74796000D02*
X49890000Y-77646000D01*
X40390000Y-74796000D02*
X49890000Y-74796000D01*
X40390000Y-86146000D02*
X49890000Y-86146000D01*
D14*
X42040000Y-88646000D02*
X42040000Y-88646000D01*
D13*
X49890000Y-86146000D02*
X49890000Y-81646000D01*
D14*
X42140000Y-88646000D02*
X42140000Y-88646000D01*
X42140000Y-88646000D02*
G75*
G03*
X42040000Y-88646000I-50000J0D01*
G01*
X42040000Y-88646000D02*
G75*
G03*
X42140000Y-88646000I50000J0D01*
G01*
D12*
%TO.C,J12*%
X15240000Y-110571000D02*
X15240000Y-121071000D01*
X24240000Y-110571000D02*
X20460000Y-110571000D01*
X18510000Y-107421000D02*
X19370000Y-107421000D01*
X18510000Y-107421000D02*
X18510000Y-108221000D01*
X18940000Y-121071000D02*
X15240000Y-121071000D01*
X19020000Y-110571000D02*
X15240000Y-110571000D01*
X24240000Y-110571000D02*
X24240000Y-121071000D01*
X24240000Y-121071000D02*
X20540000Y-121071000D01*
X21540000Y-115071000D02*
G75*
G03*
X21540000Y-115071000I-1800000J0D01*
G01*
%TO.C,J2*%
X44560000Y-121071000D02*
X40860000Y-121071000D01*
X39260000Y-121071000D02*
X35560000Y-121071000D01*
X44560000Y-110571000D02*
X44560000Y-121071000D01*
X35560000Y-110571000D02*
X35560000Y-121071000D01*
X38830000Y-107421000D02*
X39690000Y-107421000D01*
X38830000Y-107421000D02*
X38830000Y-108221000D01*
X44560000Y-110571000D02*
X40780000Y-110571000D01*
X39340000Y-110571000D02*
X35560000Y-110571000D01*
X41860000Y-115071000D02*
G75*
G03*
X41860000Y-115071000I-1800000J0D01*
G01*
%TO.C,J3*%
X18510000Y-92206000D02*
X19370000Y-92206000D01*
X18510000Y-92206000D02*
X18510000Y-93006000D01*
X24240000Y-95356000D02*
X24240000Y-105856000D01*
X15240000Y-95356000D02*
X15240000Y-105856000D01*
X24240000Y-105856000D02*
X20540000Y-105856000D01*
X19020000Y-95356000D02*
X15240000Y-95356000D01*
X24240000Y-95356000D02*
X20460000Y-95356000D01*
X18940000Y-105856000D02*
X15240000Y-105856000D01*
X21540000Y-99856000D02*
G75*
G03*
X21540000Y-99856000I-1800000J0D01*
G01*
%TO.C,R3*%
X39020000Y-54531000D02*
X39020000Y-54201000D01*
X39020000Y-54201000D02*
X45560000Y-54201000D01*
X39020000Y-56941000D02*
X45560000Y-56941000D01*
X45560000Y-56941000D02*
X45560000Y-56611000D01*
X39020000Y-56611000D02*
X39020000Y-56941000D01*
X45560000Y-54201000D02*
X45560000Y-54531000D01*
%TO.C,C6*%
X27420000Y-91834000D02*
X32260000Y-91834000D01*
X27420000Y-88814000D02*
X27420000Y-91834000D01*
X27420000Y-88814000D02*
X32260000Y-88814000D01*
X32260000Y-88814000D02*
X32260000Y-91834000D01*
%TO.C,R26*%
X45620000Y-70341000D02*
X45620000Y-70011000D01*
X39080000Y-67931000D02*
X39080000Y-67601000D01*
X39080000Y-70341000D02*
X45620000Y-70341000D01*
X39080000Y-67601000D02*
X45620000Y-67601000D01*
X45620000Y-67601000D02*
X45620000Y-67931000D01*
X39080000Y-70011000D02*
X39080000Y-70341000D01*
%TO.C,J5*%
X25400000Y-95356000D02*
X25400000Y-105856000D01*
X34400000Y-95356000D02*
X34400000Y-105856000D01*
X34400000Y-95356000D02*
X30620000Y-95356000D01*
X29180000Y-95356000D02*
X25400000Y-95356000D01*
X28670000Y-92206000D02*
X28670000Y-93006000D01*
X29100000Y-105856000D02*
X25400000Y-105856000D01*
X28670000Y-92206000D02*
X29530000Y-92206000D01*
X34400000Y-105856000D02*
X30700000Y-105856000D01*
X31700000Y-99856000D02*
G75*
G03*
X31700000Y-99856000I-1800000J0D01*
G01*
%TO.C,C8*%
X36760000Y-88591000D02*
X36760000Y-83751000D01*
X33520000Y-88591000D02*
X36760000Y-88591000D01*
X33520000Y-88591000D02*
X33520000Y-83751000D01*
X33520000Y-83751000D02*
X36760000Y-83751000D01*
%TO.C,R23*%
X26680000Y-80011000D02*
X26680000Y-80341000D01*
X33220000Y-77601000D02*
X33220000Y-77931000D01*
X26680000Y-77931000D02*
X26680000Y-77601000D01*
X26680000Y-80341000D02*
X33220000Y-80341000D01*
X33220000Y-80341000D02*
X33220000Y-80011000D01*
X26680000Y-77601000D02*
X33220000Y-77601000D01*
%TO.C,R39*%
X37814000Y-49376000D02*
X37814000Y-49046000D01*
X37814000Y-46636000D02*
X37814000Y-46966000D01*
X31274000Y-46636000D02*
X37814000Y-46636000D01*
X31274000Y-49046000D02*
X31274000Y-49376000D01*
X31274000Y-46966000D02*
X31274000Y-46636000D01*
X31274000Y-49376000D02*
X37814000Y-49376000D01*
%TO.C,R38*%
X39020000Y-57451000D02*
X45560000Y-57451000D01*
X45560000Y-57451000D02*
X45560000Y-57781000D01*
X45560000Y-60191000D02*
X45560000Y-59861000D01*
X39020000Y-60191000D02*
X45560000Y-60191000D01*
X39020000Y-57781000D02*
X39020000Y-57451000D01*
X39020000Y-59861000D02*
X39020000Y-60191000D01*
%TO.C,J7*%
X54720000Y-110571000D02*
X54720000Y-121071000D01*
X49500000Y-110571000D02*
X45720000Y-110571000D01*
X54720000Y-110571000D02*
X50940000Y-110571000D01*
X48990000Y-107421000D02*
X49850000Y-107421000D01*
X49420000Y-121071000D02*
X45720000Y-121071000D01*
X48990000Y-107421000D02*
X48990000Y-108221000D01*
X54720000Y-121071000D02*
X51020000Y-121071000D01*
X45720000Y-110571000D02*
X45720000Y-121071000D01*
X52020000Y-115071000D02*
G75*
G03*
X52020000Y-115071000I-1800000J0D01*
G01*
%TO.C,R33*%
X45510000Y-51281000D02*
X45510000Y-50951000D01*
X45510000Y-53691000D02*
X38970000Y-53691000D01*
X45510000Y-53361000D02*
X45510000Y-53691000D01*
X38970000Y-50951000D02*
X38970000Y-51281000D01*
X45510000Y-50951000D02*
X38970000Y-50951000D01*
X38970000Y-53691000D02*
X38970000Y-53361000D01*
%TD*%
M02*
