M48
; DRILL file {KiCad (6.0.4)} date Tue Jun  7 17:21:01 2022
; FORMAT={-:-/ absolute / inch / decimal}
; #@! TF.CreationDate,2022-06-07T17:21:01+01:00
; #@! TF.GenerationSoftware,Kicad,Pcbnew,(6.0.4)
; #@! TF.FileFunction,Plated,1,2,PTH
FMAT,2
INCH
; #@! TA.AperFunction,Plated,PTH,ComponentDrill
T1C0.0276
; #@! TA.AperFunction,Plated,PTH,ComponentDrill
T2C0.0315
; #@! TA.AperFunction,Plated,PTH,ComponentDrill
T3C0.0394
; #@! TA.AperFunction,Plated,PTH,ComponentDrill
T4C0.0433
; #@! TA.AperFunction,Plated,PTH,ComponentDrill
T5C0.0480
; #@! TA.AperFunction,Plated,PTH,ComponentDrill
T6C0.0559
; #@! TA.AperFunction,Plated,PTH,ComponentDrill
T7C0.0563
; #@! TA.AperFunction,Plated,PTH,ComponentDrill
T8C0.0599
; #@! TA.AperFunction,Plated,PTH,ComponentDrill
T9C0.0917
%
G90
G05
T1
X1.1256Y-3.5561
X1.224Y-3.5561
X1.3835Y-3.3433
X1.3835Y-3.4418
T2
X1.0287Y-2.9895
X1.0291Y-3.1091
X1.21Y-1.77
X1.21Y-1.89
X1.3287Y-2.9895
X1.3291Y-3.1091
X1.51Y-1.77
X1.51Y-1.89
X1.513Y-2.0599
X1.515Y-2.1878
X1.515Y-2.3158
X1.5173Y-2.7154
X1.5179Y-2.5825
X1.813Y-2.0599
X1.815Y-2.1878
X1.815Y-2.3158
X1.8173Y-2.7154
X1.8179Y-2.5825
T3
X0.6852Y-2.02
X0.6852Y-2.12
X0.6852Y-2.22
X0.6952Y-1.125
X0.6952Y-1.225
X0.6952Y-1.325
X0.6952Y-1.425
X2.0622Y-1.3
X2.0622Y-1.4
X2.0622Y-1.5
X2.0622Y-1.6
X2.0752Y-2.6202
X2.0752Y-2.7202
X2.0752Y-2.8202
T4
X0.8785Y-2.8296
X0.977Y-2.8296
X1.0754Y-2.8296
X1.2781Y-1.6101
X1.3766Y-1.6101
X1.475Y-1.6101
X1.6787Y-3.4309
X1.7772Y-3.4309
X1.8756Y-3.4309
T5
X0.7772Y-3.0762
X0.7772Y-3.6762
X0.7772Y-4.2752
X1.1772Y-3.6762
X1.1772Y-4.2752
X1.5772Y-3.6762
X1.5772Y-4.2752
X1.9772Y-3.6762
X1.9772Y-4.2752
T6
X0.7772Y-3.1983
X0.7772Y-3.7983
X0.7772Y-4.3973
X1.1772Y-3.7983
X1.1772Y-4.3973
X1.5772Y-3.7983
X1.5772Y-4.3973
X1.9772Y-3.7983
X1.9772Y-4.3973
T7
X0.7772Y-3.525
X0.7772Y-4.125
X0.7772Y-4.7241
X1.1772Y-4.125
X1.1772Y-4.7241
X1.5772Y-4.125
X1.5772Y-4.7241
X1.9772Y-4.125
X1.9772Y-4.7241
T8
X1.1772Y-3.2313
X1.1772Y-3.3313
X1.1772Y-3.4313
T9
X0.788Y-2.5343
X1.1659Y-2.5343
X1.1876Y-1.3148
X1.5656Y-1.3148
X1.5882Y-3.1357
X1.9661Y-3.1357
T0
M30
